{"title":"Racing.Stripes.2005.720p.WEB-DL.DD5.1.H264-FGT","uid":12127279,"size":3316066425,"categoryP":"video","categoryS":"hd___movies","magnet":"?xt=urn:btih:96d1f2e69d7f70b2b72678bb5dd6ed68d582f90f&amp;dn=Racing.Stripes.2005.720p.WEB-DL.DD5.1.H264-FGT&amp;tr=udp%3A%2F%2Ftracker.openbittorrent.com%3A80&amp;tr=udp%3A%2F%2Fopen.demonii.com%3A1337&amp;tr=udp%3A%2F%2Ftracker.coppersurfer.tk%3A6969&amp;tr=udp%3A%2F%2Fexodus.desync.com%3A6969","seeders":0,"leechers":0,"uploader":null,"files":3,"time":1436950083,"description":"Video\nID                                       : 1\nFormat                                   : AVC\nFormat/Info                              : Advanced Video Codec\nFormat profile                           : &lt;a class=&quot;__cf_email__&quot; href=&quot;/cdn-cgi/l/email-protection&quot; data-cfemail=&quot;2169484649616d120f10&quot;&gt;[email&amp;#160;protected]&lt;/a&gt;&lt;script data-cfhash='f9e31' type=&quot;text/javascript&quot;&gt;\n/* &lt;![CDATA[ */!function(){try{var t=&quot;currentScript&quot;in document?document.currentScript:function(){for(var t=document.getElementsByTagName(&quot;script&quot;),e=t.length;e--;)if(t[e].getAttribute(&quot;data-cfhash&quot;))return t[e]}();if(t&amp;&amp;t.previousSibling){var e,r,n,i,c=t.previousSibling,a=c.getAttribute(&quot;data-cfemail&quot;);if(a){for(e=&quot;&quot;,r=parseInt(a.substr(0,2),16),n=2;a.length-n;n+=2)i=parseInt(a.substr(n,2),16)^r,e+=String.fromCharCode(i);e=document.createTextNode(e),c.parentNode.replaceChild(e,c)}t.parentNode.removeChild(t);}}catch(u){}}()/* ]]&gt; */&lt;/script&gt;\nFormat settings, CABAC                   : No\nFormat settings, ReFrames                : 2 frames\nCodec ID                                 : V_MPEG4/ISO/AVC\nDuration                                 : 1h 41mn\nBit rate                                 : 3 866 Kbps\nWidth                                    : 1 280 pixels\nHeight                                   : 718 pixels\nDisplay aspect ratio                     : 16:9\nFrame rate mode                          : Constant\nFrame rate                               : 23.976 fps\nColor space                              : YUV\nChroma subsampling                       : 4:2:0\nBit depth                                : 8 bits\nScan type                                : Progressive\nBits/(Pixel*Frame)                       : 0.175\nStream size                              : 2.75 GiB (89%)\nTitle                                    : Racing.Stripes.2005.720p.WEB-DL.DD5.1.H264-FGT\nLanguage                                 : English\nDefault                                  : Yes\nForced                                   : No\nColor range                              : Limited\nColor primaries                          : BT.709\nTransfer characteristics                 : BT.709\nMatrix coefficients                      : BT.709\n\nAudio\nID                                       : 2\nFormat                                   : AC-3\nFormat/Info                              : Audio Coding 3\nMode extension                           : CM (complete main)\nFormat settings, Endianness              : Big\nCodec ID                                 : A_AC3\nDuration                                 : 1h 41mn\nBit rate mode                            : Constant\nBit rate                                 : 384 Kbps\nChannel(s)                               : 6 channels\nChannel positions                        : Front: L C R, Side: L R, LFE\nSampling rate                            : 48.0 KHz\nBit depth                                : 16 bits\nCompression mode                         : Lossy\nStream size                              : 280 MiB (9%)\nTitle                                    : Racing.Stripes.2005.720p.WEB-DL.DD5.1.H264-FGT\nLanguage                                 : English\nDefault                                  : Yes\nForced                                   : No\n\nText\nID                                       : 3\nFormat                                   : UTF-8\nCodec ID                                 : S_TEXT/UTF8\nCodec ID/Info                            : UTF-8 Plain Text\nTitle                                    : CC\nLanguage                                 : English\nDefault                                  : Yes\nForced                                   : No\n\nMenu\n00:00:00.000                             : en:Left behind.\n00:03:36.000                             : en:Welcome, Stripes.\n00:07:53.000                             : en:Racing in his heart.\n00:12:04.000                             : en:Showdown.\n00:14:53.000                             : en:New filly.\n00:17:10.000                             : en:Rookie mistake.\n00:20:39.000                             : en:Wise guy Goose.\n00:24:44.000                             : en:That's the attitude.\n00:28:19.000                             : enouble hit.\n00:31:35.000                             : en:Easy rider.\n00:34:04.000                             : en:Buzz and Scuzz.\n00:38:26.000                             : enetermined dreamer.\n00:43:45.000                             : en:Spooked.\n00:48:01.000                             : en:Woodzie's hunch.\n00:52:29.000                             : en:How did you know?\n00:57:07.000                             : en:The real problem.\n01:00:20.000                             : en:99-to-1 chance.\n01:04:12.000                             : en:It Ain't Over Yet.\n01:07:59.000                             : en:Taught a lesson.\n01:12:01.000                             : en:Rescue mission.\n01:16:36.000                             : en:No way they're missing this.\n01:18:52.000                             : en:Making a deal.\n01:23:11.000                             : en:Away they go.\n01:27:10.000                             : en:No holding back.\n01:30:37.000                             : en:Winner's circle.\n01:33:52.000                             : en:End credits","torrent":{"xt":"urn:btih:96d1f2e69d7f70b2b72678bb5dd6ed68d582f90f","amp;dn":"Racing.Stripes.2005.720p.WEB-DL.DD5.1.H264-FGT","amp;tr":["udp%3A%2F%2Ftracker.openbittorrent.com%3A80","udp%3A%2F%2Fopen.demonii.com%3A1337","udp%3A%2F%2Ftracker.coppersurfer.tk%3A6969","udp%3A%2F%2Fexodus.desync.com%3A6969"],"infoHash":"96d1f2e69d7f70b2b72678bb5dd6ed68d582f90f","infoHashBuffer":{"type":"Buffer","data":[150,209,242,230,157,127,112,178,183,38,120,187,93,214,237,104,213,130,249,15]},"announce":[],"urlList":[]}}